<?xml version="1.0" standalone="no"?><!DOCTYPE svg PUBLIC "-//W3C//DTD SVG 1.1//EN" "http://www.w3.org/Graphics/SVG/1.1/DTD/svg11.dtd"><svg t="1772454271333" class="icon" viewBox="0 0 1024 1024" version="1.1" xmlns="http://www.w3.org/2000/svg" p-id="4850" width="500" height="500" xmlns:xlink="http://www.w3.org/1999/xlink"><path d="M721.92 754.3808a38.3488 38.3488 0 0 1-38.4 38.4 115.2512 115.2512 0 0 1-88.064-40.96l-5.12-7.168a91.5456 91.5456 0 0 0-128.512-11.776 85.2992 85.2992 0 0 0-11.776 11.776l-5.12 6.144a116.8384 116.8384 0 0 1-87.552 41.984 38.3488 38.3488 0 0 1-38.4-38.4v-9.216a179.2 179.2 0 0 1 43.008-116.224l65.536-76.8a123.4944 123.4944 0 0 1 173.056-13.312 81.92 81.92 0 0 1 13.312 13.312l65.536 76.8a182.4256 182.4256 0 0 1 43.52 116.224v9.216zM329.2672 502.4768a40.96 40.96 0 0 1-20.992 31.232 52.992 52.992 0 0 1-41.472 0c-41.472-17.408-66.56-54.784-62.976-95.232a40.6016 40.6016 0 0 1 22.016-32.256 43.4688 43.4688 0 0 1 19.456-4.608c30.208 3.584 56.832 20.48 69.632 44.032a79.0016 79.0016 0 0 1 14.336 56.832zM797.2352 485.5808a85.76 85.76 0 0 1-40.448 36.864 34.3552 34.3552 0 0 1-46.08-14.336 33.2288 33.2288 0 0 1-4.096-13.824 86.4256 86.4256 0 0 1 11.776-52.736 72.9088 72.9088 0 0 1 57.344-40.448 34.8672 34.8672 0 0 1 15.872 4.096 38.7584 38.7584 0 0 1 16.896 29.184 78.9504 78.9504 0 0 1-11.264 51.2zM330.2912 255.6928a65.6896 65.6896 0 0 1 39.424-40.448 49.8688 49.8688 0 0 1 17.408-3.072A99.4816 99.4816 0 0 1 471.6032 286.72c16.896 51.712-2.048 105.472-40.448 117.76a65.6896 65.6896 0 0 1-54.784-11.264 116.1216 116.1216 0 0 1-46.08-61.952 113.2032 113.2032 0 0 1 0-75.776zM546.3552 300.2368a115.1488 115.1488 0 0 1 35.84-68.608 67.6352 67.6352 0 0 1 48.64-18.944l6.144 0.512c39.936 6.656 67.072 56.832 58.368 110.592a115.1488 115.1488 0 0 1-35.84 68.608 65.9456 65.9456 0 0 1-53.76 18.432c-41.984-5.632-68.096-56.32-59.392-110.592z" fill="#FFFFFF" p-id="4851"></path><path d="M725.5552 766.6688c0 22.528-16.384 39.936-36.864 39.936a106.9568 106.9568 0 0 1-84.48-43.008l-5.12-7.168a82.7392 82.7392 0 0 0-123.392-12.288 128 128 0 0 0-11.264 12.288l-5.12 6.656a107.8272 107.8272 0 0 1-83.968 44.032c-20.48 0-36.864-17.92-36.864-39.936v-9.728a201.8816 201.8816 0 0 1 40.96-121.856l62.464-80.384c41.984-53.76 116.224-59.904 165.376-13.824a163.84 163.84 0 0 1 12.8 13.824l62.464 80.384a197.9904 197.9904 0 0 1 41.472 121.856v9.216zM338.9952 502.4768a40.96 40.96 0 0 1-19.968 31.232 48.128 48.128 0 0 1-39.424 0c-39.424-17.408-64-54.784-60.416-95.232a41.7792 41.7792 0 0 1 20.992-32.256 38.4512 38.4512 0 0 1 18.944-4.608A90.112 90.112 0 0 1 326.7072 445.44a87.04 87.04 0 0 1 14.336 56.832zM797.7472 495.3088a84.736 84.736 0 0 1-38.912 36.864 32.1536 32.1536 0 0 1-44.032-14.336 32.6144 32.6144 0 0 1-3.584-13.824 86.0672 86.0672 0 0 1 11.264-52.736 69.7344 69.7344 0 0 1 54.784-40.448 32.8192 32.8192 0 0 1 15.36 4.096 41.472 41.472 0 0 1 16.384 29.184 85.76 85.76 0 0 1-11.264 51.2zM339.5072 260.8128a64.1536 64.1536 0 0 1 38.4-40.448 46.3872 46.3872 0 0 1 16.384-3.072A97.5872 97.5872 0 0 1 475.6992 291.84c15.872 51.712-1.536 105.472-38.4 117.76a60.928 60.928 0 0 1-52.736-11.264 112.64 112.64 0 0 1-44.032-61.952 119.9104 119.9104 0 0 1-1.024-75.776zM557.1072 305.3568a115.968 115.968 0 0 1 34.304-68.608 63.744 63.744 0 0 1 46.592-18.944l5.632 0.512c38.4 6.656 64.512 56.832 56.32 110.592a115.968 115.968 0 0 1-34.304 68.608 62.2592 62.2592 0 0 1-52.224 18.432c-38.912-5.632-65.024-56.832-56.32-110.592z" fill="#FF5252" p-id="4852" data-spm-anchor-id="a313x.search_index.0.i2.764a3a81526pQi" class="selected"></path><path d="M641.0752 535.7568a158.72 158.72 0 0 0-224.256-17.408 186.1632 186.1632 0 0 0-17.408 17.408l-57.344 68.096a209.5616 209.5616 0 0 0-51.2 135.68V747.52a84.8896 84.8896 0 0 0 84.48 84.48 154.9824 154.9824 0 0 0 116.736-54.272l4.608-5.632a30.72 30.72 0 0 1 4.096-4.096 29.3376 29.3376 0 0 1 41.472 4.096l4.608 5.632a150.9376 150.9376 0 0 0 117.248 54.272 84.8896 84.8896 0 0 0 84.48-84.48v-8.192a205.8752 205.8752 0 0 0-51.2-135.68z m80.896 218.624a38.3488 38.3488 0 0 1-38.4 38.4 115.2512 115.2512 0 0 1-88.064-40.96l-5.12-7.168a91.5456 91.5456 0 0 0-128.512-11.776 85.2992 85.2992 0 0 0-11.776 11.776l-5.12 6.144a116.8384 116.8384 0 0 1-87.552 41.984 38.3488 38.3488 0 0 1-38.4-38.4v-9.216a179.2 179.2 0 0 1 43.008-116.224l65.536-76.8a123.4944 123.4944 0 0 1 173.056-13.312 81.92 81.92 0 0 1 13.312 13.312l65.536 76.8a182.4256 182.4256 0 0 1 43.52 116.224v9.216z m-367.616-252.928a105.984 105.984 0 0 0-14.336-68.096c-26.112-46.08-79.36-65.536-117.248-43.008a74.5984 74.5984 0 0 0-35.84 55.296 111.2064 111.2064 0 0 0 66.048 113.664 81.3568 81.3568 0 0 0 31.232 6.656 78.2848 78.2848 0 0 0 35.328-8.704 78.2848 78.2848 0 0 0 34.816-55.808z m-25.088 1.024a40.96 40.96 0 0 1-20.992 31.232 52.992 52.992 0 0 1-41.472 0c-41.472-17.408-66.56-54.784-62.976-95.232a40.6016 40.6016 0 0 1 22.016-32.256 43.4688 43.4688 0 0 1 19.456-4.608c30.208 3.584 56.832 20.48 69.632 44.032a79.0016 79.0016 0 0 1 14.336 56.832z m507.904-67.584a70.6048 70.6048 0 0 0-32.768-51.712c-35.84-20.48-83.968-2.56-108.544 39.936a98.6624 98.6624 0 0 0-13.312 62.464 70.6048 70.6048 0 0 0 32.768 51.712 66.2528 66.2528 0 0 0 32.768 8.192 70.4512 70.4512 0 0 0 28.672-6.144 102.4 102.4 0 0 0 60.416-104.448z m-39.936 50.688a85.76 85.76 0 0 1-40.448 36.864 34.3552 34.3552 0 0 1-46.08-14.336 33.2288 33.2288 0 0 1-4.096-13.824 86.4256 86.4256 0 0 1 11.776-52.736 72.9088 72.9088 0 0 1 57.344-40.448 34.8672 34.8672 0 0 1 15.872 4.096 38.7584 38.7584 0 0 1 16.896 29.184 78.9504 78.9504 0 0 1-11.264 51.2zM356.9152 409.6a96.768 96.768 0 0 0 53.76 16.896 84.6848 84.6848 0 0 0 27.648-4.608c53.76-16.896 80.384-81.92 59.904-144.384s-79.36-99.328-133.12-81.408a92.8256 92.8256 0 0 0-58.368 57.344 131.9424 131.9424 0 0 0-1.536 86.528A126.8736 126.8736 0 0 0 356.9152 409.6z m-26.624-154.112a65.6896 65.6896 0 0 1 39.424-40.448 49.8688 49.8688 0 0 1 17.408-3.072A99.4816 99.4816 0 0 1 471.6032 286.72c16.896 51.712-2.048 105.472-40.448 117.76a65.6896 65.6896 0 0 1-54.784-11.264 116.1216 116.1216 0 0 1-46.08-61.952 113.2032 113.2032 0 0 1 0-75.776z m280.064 176.64H619.52a97.28 97.28 0 0 0 68.096-29.184 129.2288 129.2288 0 0 0 35.84-78.336c7.168-65.024-33.28-122.88-88.576-129.024a93.9008 93.9008 0 0 0-76.8 28.672 131.84 131.84 0 0 0-36.864 78.848c-6.144 65.536 32.768 123.392 89.088 129.024z m-64-132.096a115.1488 115.1488 0 0 1 35.84-68.608 67.6352 67.6352 0 0 1 48.64-18.944l6.144 0.512c39.936 6.656 67.072 56.832 58.368 110.592a115.1488 115.1488 0 0 1-35.84 68.608 65.9456 65.9456 0 0 1-53.76 18.432c-41.984-5.632-68.096-56.32-59.392-110.592z" p-id="4853"></path></svg>