<?xml version="1.0" standalone="no"?><!DOCTYPE svg PUBLIC "-//W3C//DTD SVG 1.1//EN" "http://www.w3.org/Graphics/SVG/1.1/DTD/svg11.dtd"><svg t="1772631818123" class="icon" viewBox="0 0 1024 1024" version="1.1" xmlns="http://www.w3.org/2000/svg" p-id="4735" xmlns:xlink="http://www.w3.org/1999/xlink" width="500" height="500"><path d="M139.636364 139.636364m372.363636 0l0 0q372.363636 0 372.363636 372.363636l0 0q0 372.363636-372.363636 372.363636l0 0q-372.363636 0-372.363636-372.363636l0 0q0-372.363636 372.363636-372.363636Z" fill="#FF6720" p-id="4736"></path><path d="M665.646545 616.913455c-10.286545-25.134545-46.638545-31.650909-63.906909-48.872728-36.119273-36.212364-27.461818-95.418182-89.693091-99.002182-62.277818 3.584-53.620364 62.836364-89.786181 99.002182-17.221818 17.221818-53.620364 23.738182-63.906909 48.872728-12.567273 30.766545 8.145455 58.647273 23.738181 70.656 31.418182 24.017455 81.873455 0.279273 115.712-3.258182 4.887273-0.558545 9.541818-0.651636 14.196364-0.651637s9.355636 0.093091 14.196364 0.651637c33.838545 3.537455 84.293818 27.275636 115.712 3.258182 15.639273-12.008727 36.352-39.889455 23.738181-70.656z m29.928728-135.912728c-8.145455 30.533818-33.373091 50.315636-56.32 44.218182-22.900364-6.190545-34.816-35.933091-26.670546-66.513454 8.192-30.533818 33.419636-50.362182 56.32-44.218182 22.946909 6.190545 34.909091 35.933091 26.670546 66.466909zM411.461818 458.705455c8.145455 30.533818-3.723636 60.322909-26.670545 66.466909-22.946909 6.097455-48.174545-13.684364-56.32-44.218182-8.192-30.580364 3.723636-60.322909 26.624-66.513455 22.946909-6.050909 48.174545 13.684364 56.32 44.264728z m84.805818-87.598546c8.192 30.533818-3.770182 60.276364-26.670545 66.466909-22.946909 6.097455-48.128-13.684364-56.32-44.218182-8.192-30.580364 3.723636-60.322909 26.670545-66.466909 22.900364-6.144 48.128 13.637818 56.32 44.218182z m114.594909 22.248727c-8.192 30.533818-33.419636 50.362182-56.32 44.218182-22.946909-6.190545-34.909091-35.933091-26.71709-66.466909 8.192-30.580364 33.419636-50.362182 56.32-44.218182 22.946909 6.144 34.909091 35.886545 26.71709 66.466909z" fill="#FFFFFF" p-id="4737"></path></svg>